<svg xmlns:dc="http://purl.org/dc/elements/1.1/" xmlns:cc="http://creativecommons.org/ns#" xmlns:rdf="http://www.w3.org/1999/02/22-rdf-syntax-ns#" xmlns:svg="http://www.w3.org/2000/svg" xmlns="http://www.w3.org/2000/svg" xmlns:sodipodi="http://sodipodi.sourceforge.net/DTD/sodipodi-0.dtd" xmlns:inkscape="http://www.inkscape.org/namespaces/inkscape" version="1.1" inkscape:version="0.48.4 r9939" width="44.9" height="50"><metadata><rdf:RDF><cc:Work rdf:about=""><dc:format>image/svg+xml</dc:format><dc:type rdf:resource="http://purl.org/dc/dcmitype/StillImage"/><dc:title/></cc:Work></rdf:RDF></metadata><defs/><path style="fill:#3e2d14;fill-opacity:1" d="m 2.2 48.9 c -0.6 -1.1 -0.5 -1.8 0 -1.8 0.1 0 0 -0.3 -0.3 -0.6 C 0.8 45.4 0.1 41.1 0 34.1 c -0.1 -6.3 0.1 -7.9 1.9 -14.3 2.6 -9.1 6.6 -14.7 12.8 -17.7 3.1 -1.5 5 -2 7.6 -2 2.6 0 4.5 0.5 7.4 1.9 7.6 3.7 12.6 12.3 14.6 25.4 0.7 4.1 0.6 8 -0 12.7 -0.4 3 -1.1 6.4 -1.4 6.8 -0 0.1 -1.9 -0.6 -4 -1.3 -8.1 -2.9 -7.5 -2.6 -8 -3.6 -0.3 -0.6 -0.9 -1.2 -1.8 -1.8 -1.2 -0.8 -1.3 -0.9 -1.3 -1.8 0 -0.5 -0.1 -1.5 -0.1 -2.2 -0.1 -1 -0.2 -1.3 -0.5 -1.2 -0.3 0.1 -0.3 -0 -0.2 -0.7 0.1 -0.5 0.1 -0.9 -0.1 -1.1 -0.2 -0.3 -0.6 1.4 -0.9 3.7 l -0.1 0.6 -0.3 -0.7 c -0.2 -0.5 -0.4 -0.7 -0.7 -0.6 -0.2 0.1 -0.3 0.1 -0.2 -0.1 0.3 -0.6 0.3 -1.2 -0 -1.2 -0.2 0 -0.6 -0.2 -0.8 -0.5 -0.6 -0.6 -0.7 -2.2 -0.1 -5.9 0.5 -3.2 0.3 -4.2 -0.6 -4.8 -0.5 -0.4 -0.9 -1 -1.4 -2.5 -0.5 -1.4 -0.9 -2.2 -1.6 -2.9 -1.1 -1.1 -4.9 -2.9 -5.7 -2.8 -0.9 0.2 -3 1.7 -3.5 2.6 -0.3 0.5 -0.6 0.8 -0.8 0.7 -0.3 -0.1 -0.4 0.7 -0.6 3.8 -0.1 1.4 -0.1 1.4 1.8 1.7 1.2 0.2 2.3 1.1 2.3 1.9 0 0.3 -0.3 0.7 -0.9 0.9 -0.8 0.4 -0.9 0.4 -1.4 0 -0.3 -0.2 -0.7 -0.3 -0.9 -0.2 -0.2 0.1 -0.3 0 -0.3 -0.1 0 -0.3 0.6 -0.6 1.8 -0.6 0.9 0 1 -0.1 0.7 -0.4 -0.4 -0.5 -1.5 -0.5 -2.2 0.1 -0.5 0.3 -0.5 0.3 -0.5 0.1 0.1 -0.2 0.4 -0.5 0.8 -0.6 1.5 -0.5 1.5 -0.5 0.8 -0.7 -0.3 -0.1 -1 -0.1 -1.4 -0.1 -0.6 0.1 -0.8 0.2 -0.8 0.7 0 0.3 0.1 0.7 0.2 0.7 0.1 0.1 0.2 0.3 0.1 0.5 -0.1 0.2 -0 0.4 0.1 0.5 0.1 0.1 0.1 0.4 -0.1 0.9 -0.5 0.9 -0.3 1.7 0.7 4.2 0.6 1.5 0.7 1.9 0.4 2 -0.5 0.3 0.4 2 2.2 4 1.4 1.5 1.5 1.8 1.6 2.9 0.1 1.2 0 1.2 -1.2 2.4 -0.7 0.6 -2.9 2 -4.7 3 -1.9 1 -4 2.3 -4.8 2.8 l -1.3 1.1 -0.5 -1.1 z M 29.4 25.5 c 0 -0.1 0.1 -0.2 0.3 -0.2 0.2 0 0.3 -0.2 0.3 -0.5 -0 -0.2 0.1 -0.4 0.2 -0.4 0.1 0 0.1 -0.4 -0.2 -0.9 -0.4 -0.8 -0.6 -0.9 -0.8 -0.7 -0.2 0.2 -0.3 0.1 -0.2 -0.3 0.1 -0.5 0 -0.5 -0.6 0.2 -0.8 0.8 -1.2 1.8 -0.8 1.8 0.1 0 0.4 -0.2 0.7 -0.6 0.5 -0.7 1.3 -0.6 1.3 0.1 0 0.7 -0.5 1.1 -0.9 0.8 -0.4 -0.3 -0.5 0.3 -0 0.7 0.4 0.4 0.7 0.4 0.7 0.1 z m 3 -2 c 0.7 -0.4 1.2 -0.8 1.2 -0.9 0 -0.2 -1.7 -0.8 -2.2 -0.8 -0.1 0 -0.6 -0.3 -0.9 -0.6 -0.5 -0.5 -0.7 -0.6 -0.9 -0.3 -0.1 0.2 -0.2 0.4 -0.2 0.5 0 0.3 1.4 0.9 2.1 0.9 0.6 0 1.1 0.5 0.7 0.8 -0.3 0.3 -0.6 0.1 -0.5 -0.2 0.1 -0.4 -0.2 -0.5 -0.9 -0.2 -0.5 0.2 -0.5 0.6 0 0.6 0.3 0 0.3 0.1 0.2 0.5 -0.2 0.7 0 0.6 1.4 -0.3 z m -3.4 -3.4 c -0.1 -1.1 -0.7 -2.3 -1.1 -2.3 -0.2 0 -0.7 1.3 -1 2.5 -0.1 0.5 -0 0.6 0.5 0.6 0.4 0 0.7 -0.2 0.8 -0.6 0.2 -0.5 0.2 -0.5 0.3 0.2 0.1 0.5 0.2 0.8 0.4 0.8 0.2 0 0.2 -0.4 0.1 -1.2 z m 3.4 -0.2 c 0.4 -0.3 0.9 -0.6 1.1 -0.6 0.2 0 0.4 -0.2 0.6 -0.5 0.4 -0.6 0.3 -0.6 -0.6 -0.2 -0.7 0.3 -2 1.4 -1.6 1.4 0.1 0 0 0.1 -0.2 0.2 -0.2 0.1 -0.3 0.2 -0.1 0.2 0.1 0 0.6 -0.3 0.9 -0.6 z M 8.7 19.7 c 0 -0.9 1.1 -2.6 1.6 -2.5 0.3 0 0.7 -0.2 0.9 -0.7 0.6 -1 1.6 -1.6 2.9 -1.6 1.1 -0.1 1.3 -0.2 2.2 -1.6 0 -0.1 0.5 0.2 1 0.6 0.7 0.5 0.9 0.8 0.8 1.2 -0.1 0.4 -0 0.5 0.6 0.3 0.5 -0.1 0.6 -0.1 0.3 0.1 -0.3 0.2 -0.3 0.3 0 0.6 4 3.1 4.2 3.2 4.6 2.9 0.5 -0.5 0.5 -2.2 0 -2.7 -0.3 -0.2 -0.3 -0.4 -0.1 -0.7 0.6 -0.7 -1.4 -3.1 -2.5 -3.1 -0.3 0 -0.6 -0.2 -0.8 -0.5 -0.2 -0.3 -0.5 -0.5 -0.8 -0.5 -0.2 0 -0.7 -0.1 -1.1 -0.3 -0.6 -0.2 -0.7 -0.2 -1 0.2 -0.3 0.4 -0.3 0.4 -0.3 0.1 0 -0.3 -0.2 -0.4 -1 -0.4 -0.6 0 -1 -0.1 -1 -0.2 0 -0.1 -0.5 0 -1.2 0.3 -0.7 0.3 -1.6 0.7 -2.1 0.9 -0.5 0.2 -0.9 0.4 -0.8 0.5 0.1 0.1 -0.1 0.3 -0.2 0.5 -0.2 0.2 -0.4 0.5 -0.4 0.7 0 0.2 -0.2 0.3 -0.4 0.3 -0.2 0 -0.4 0.2 -0.4 0.5 0 0.3 -0.3 1.2 -0.6 2 -0.6 1.6 -0.8 3.7 -0.4 3.7 0.1 0 0.2 -0.2 0.2 -0.6 z M 23 18.5 c 0 -0.1 0.1 -0.2 0.3 -0.2 0.1 0 0.2 0.1 0.1 0.2 -0.1 0.1 -0.2 0.2 -0.3 0.2 -0.1 0 -0.1 -0.1 -0.1 -0.2 z m -0.4 -1.2 c -0.2 -0.7 -0.2 -0.7 0.2 -0.5 0.2 0.1 0.5 0.5 0.5 0.7 0 0.7 -0.3 0.5 -0.7 -0.3 z m -0.8 -0.2 c -0.3 -0.6 -0.5 -0.7 -0.8 -0.5 -0.2 0.2 -0.3 0.2 -0.2 -0.1 0.2 -0.7 1 -0.4 1.3 0.5 0.4 1 0.2 1.1 -0.3 0.1 z m -10.2 -2.6 c -0.7 -0.7 -0.7 -1.3 -0.1 -1.3 0.4 0 0.4 0.1 0.2 0.4 -0.3 0.6 -0.3 0.8 0.1 0.5 0.5 -0.4 0.7 -0.2 0.4 0.5 l -0.2 0.6 -0.6 -0.6 z m 7.2 0 c -0.2 -0.2 -0.3 -0.6 -0.3 -1.1 0.1 -0.7 0 -0.8 -0.3 -0.7 -0.5 0.2 -0.5 -0 -0.2 -0.6 0.2 -0.3 0.3 -0.2 0.6 0.4 0.3 0.6 0.8 2.4 0.6 2.4 -0 0 -0.2 -0.1 -0.4 -0.3 z m 1.4 0.1 c -0.1 -0.1 -0 -0.4 0.1 -0.6 0.2 -0.3 0.2 -0.2 0.2 0.2 0 0.6 -0.1 0.7 -0.3 0.4 z m -0.5 -0.9 c -0.1 -0.2 -0.1 -0.7 -0.1 -1 0 -0.4 0.1 -0.4 0.1 -0.2 0.1 0.2 0.2 0.5 0.4 0.5 0.1 0.1 0.1 0.3 0 0.6 -0.2 0.4 -0.2 0.4 -0.4 0 z m 1.1 -0.4 c 0 -0.3 0.1 -0.5 0.2 -0.3 0.1 0.1 0.2 0.3 0.2 0.5 0 0.2 -0.1 0.3 -0.2 0.3 -0.1 0 -0.2 -0.2 -0.2 -0.5 z m -4.2 -0.8 c -0.3 -0.3 -0.5 -0.7 -0.5 -0.8 0.2 -0.2 1.2 0.5 1.2 0.9 0 0.6 -0.1 0.6 -0.8 -0.2 z m 15.7 5.6 c -0.1 -0.5 -0.1 -0.5 0.3 -0.1 0.8 0.7 0.8 0.4 -0.1 -0.9 -1 -1.5 -1.2 -1.7 -2.1 -1.7 l -0.6 0 0.6 0.3 c 0.6 0.3 1.1 1 1.5 2.2 0.3 0.8 0.6 0.9 0.4 0.2 z m 5.8 0.2 c -0.3 -0.1 -0.7 -0.4 -0.8 -0.5 -0.1 -0.1 -0.5 -0 -0.9 0.2 l -0.7 0.4 0.7 -0.1 c 0.4 -0.1 0.8 0 0.8 0.1 0.1 0.1 0.4 0.2 0.8 0.2 l 0.7 -0 -0.6 -0.3 z m -3.6 -0.7 c 0.1 -0.3 0.3 -0.6 0.5 -0.6 0.2 -0.1 0.3 -0.3 0.2 -0.7 -0.1 -0.3 -0.1 -0.7 0.1 -0.9 0.2 -0.3 0.3 -0.1 0.4 0.7 0.1 0.6 0.3 1.1 0.4 1.1 0.4 0 0 -1.5 -0.5 -2 -0.2 -0.2 -1 -0.6 -1.7 -0.8 -1.6 -0.5 -1.8 -0.5 -1.3 0 0.5 0.5 0.5 1.2 0 1 -0.7 -0.3 -0.5 1.2 0.4 2.1 0.9 0.9 1.2 0.9 1.4 0.3 z m -1.3 -1 c -0.1 -0.1 0 -0.5 0.2 -0.7 0.2 -0.2 0.4 -0.6 0.4 -0.7 0 -0.4 0.3 -0.4 0.7 0 0.4 0.4 0.4 1.2 -0.1 1.1 -0.2 -0.1 -0.5 0.1 -0.7 0.2 -0.2 0.2 -0.5 0.3 -0.6 0.1 z m 2.1 -3.2 c 0.5 -0.6 0.5 -0.8 0.2 -0.8 -0.2 0 -0.5 0.2 -0.7 0.5 -0.2 0.3 -0.4 0.5 -0.6 0.5 -0.4 0 -0.8 -1.1 -0.6 -1.8 0.1 -0.5 0.2 -0.6 0.2 -0.1 0 0.5 0 0.5 0.4 0 0.5 -0.7 0.1 -0.9 -0.8 -0.7 -0.7 0.1 -0.8 0.3 -0.8 0.9 0 0.4 -0.1 0.7 -0.3 0.7 -0.6 0 1.7 1.4 2.3 1.5 0.1 0 0.4 -0.3 0.7 -0.8 z m -16.2 28.1 c 0 -0.2 0.1 -0.4 0.2 -0.4 0.1 0 0.2 0.1 0.2 0.2 0 0.1 -0.1 0.3 -0.2 0.4 -0.1 0.1 -0.2 -0 -0.2 -0.2 z m -2.2 -0.1 c -0.2 -0.1 0.1 -0.3 0.8 -0.6 0.6 -0.3 1.4 -0.8 1.8 -1.1 0.8 -0.7 1.3 -0.6 0.6 0.1 -0.2 0.2 -0.3 0.5 -0.2 0.6 0.1 0.1 -0.1 0.2 -0.5 0.2 -0.4 0 -0.8 0.2 -1 0.5 -0.3 0.5 -0.8 0.6 -1.4 0.3 z m 7.7 -4.6 c 0 -0.1 0.1 -0.2 0.2 -0.1 0.1 0.1 0.2 0.2 0.2 0.3 0 0.1 -0.1 0.1 -0.2 0.1 -0.1 0 -0.2 -0.1 -0.2 -0.3 z m -8.8 -1.2 c 0.3 -0.1 0.8 -0.3 1.1 -0.5 0.4 -0.2 0.3 -0.2 -0.5 -0.1 -0.6 0.1 -1.6 0.1 -2.2 -0.1 -1.7 -0.2 -0.8 -0.5 2.3 -0.7 l 2.5 -0.1 -0.9 0.8 c -0.7 0.7 -1.1 0.8 -1.9 0.8 -0.8 -0 -0.9 -0.1 -0.4 -0.2 z m -1.6 -2.9 c -0.8 -0.2 -0.8 -0.2 1.1 -0.9 1.9 -0.6 2.3 -0.6 1.9 0.1 -0.2 0.3 -0.3 0.3 -0.3 0.1 0 -0.3 -0.1 -0.3 -0.5 0.1 -0.2 0.2 -0.6 0.3 -0.7 0.2 -0.1 -0.1 -0.3 -0 -0.5 0.2 -0.2 0.3 -0.5 0.3 -1.1 0.1 z m 2 -5.9 c 0.1 -0.5 0.1 -0.7 -0.1 -0.6 -0.1 0.1 -0.3 -0.1 -0.4 -0.4 -0.3 -1.2 -0.2 -1.4 1.1 -2.1 1.7 -0.8 3.8 -0.8 5.2 -0.1 1.1 0.6 1.3 0.9 1 1.7 -0.1 0.3 -0.1 0.8 -0.1 1.1 0.1 0.4 0.1 0.5 -0.4 0.2 -0.7 -0.3 -1.2 -0.2 -1.2 0.4 0 0.3 -0.1 0.3 -0.6 0.2 -0.3 -0.1 -0.8 -0.2 -1.1 -0.2 -0.3 0 -0.7 -0.2 -0.9 -0.5 -0.3 -0.4 -0.5 -0.5 -0.8 -0.2 -0.3 0.3 -0.4 0.3 -0.4 -0.1 0 -0.5 1.6 -1 2.7 -0.8 0.8 0.1 0.9 0.1 0.4 -0.2 -0.8 -0.6 -2.6 -0.3 -3.3 0.5 -0.3 0.4 -0.6 0.9 -0.6 1.3 0 0.4 -0.1 0.6 -0.4 0.6 -0.3 0 -0.3 -0.2 -0.2 -0.8 z m 4.5 -0.2 c 0.1 -0.1 0.1 -0.2 -0.1 -0.2 -0.1 0 -0.3 0.1 -0.4 0.2 -0.1 0.1 -0.1 0.2 0.1 0.2 0.1 0 0.3 -0.1 0.4 -0.2 z m 1.8 -1.6 c -0.2 -0.8 -1.1 -1.4 -1.9 -1.4 -1.2 0 -4 0.8 -4 1.2 0 0.2 0.1 0.2 0.8 -0.1 1.1 -0.6 2.8 -0.5 4 0.2 0.6 0.3 1.1 0.6 1.2 0.6 0.1 0 0 -0.2 -0.1 -0.6 z" inkscape:connector-curvature="0"/></svg>