<svg xmlns:dc="http://purl.org/dc/elements/1.1/" xmlns:cc="http://creativecommons.org/ns#" xmlns:rdf="http://www.w3.org/1999/02/22-rdf-syntax-ns#" xmlns:svg="http://www.w3.org/2000/svg" xmlns="http://www.w3.org/2000/svg" xmlns:sodipodi="http://sodipodi.sourceforge.net/DTD/sodipodi-0.dtd" xmlns:inkscape="http://www.inkscape.org/namespaces/inkscape" version="1.1" inkscape:version="0.48.4 r9939" width="180" height="200"><metadata><rdf:RDF><cc:Work rdf:about=""><dc:format>image/svg+xml</dc:format><dc:type rdf:resource="http://purl.org/dc/dcmitype/StillImage"/><dc:title/></cc:Work></rdf:RDF></metadata><defs/><path style="fill:#3e2d14;fill-opacity:1" d="m 8.9 195.4 c -2.2 -4.6 -2.1 -7.3 0.1 -7.3 0.6 0 0 -1.1 -1.4 -2.4 -4.4 -4.1 -7 -21.1 -7.5 -49.4 -0.4 -25.2 0.5 -31.6 7.8 -57.4 C 18.2 42.4 34.3 20.2 59.3 8 c 12.3 -6 19.9 -8 30.5 -8 10.4 0 18.1 2 29.5 7.5 30.5 14.7 50.2 49.1 58.5 101.7 2.6 16.3 2.5 31.9 -0.1 50.6 -1.7 12.1 -4.4 25.6 -5.5 27 -0.1 0.2 -7.4 -2.2 -16.1 -5.3 -32.5 -11.4 -30.1 -10.4 -32.1 -14.4 -1.1 -2.2 -3.8 -5 -7 -7.1 -4.7 -3.1 -5.3 -3.8 -5.3 -7 -0 -2 -0.3 -5.9 -0.6 -8.8 -0.5 -4.1 -1 -5.2 -2.1 -4.7 -1.2 0.5 -1.3 -0.1 -0.9 -2.7 0.3 -1.8 0.2 -3.8 -0.2 -4.6 -0.7 -1.1 -2.3 5.7 -3.5 14.8 l -0.3 2.5 -1.2 -2.9 c -0.8 -1.9 -1.7 -2.7 -2.7 -2.3 -0.9 0.3 -1.3 0.2 -0.9 -0.4 1.4 -2.2 1.3 -5 -0.1 -5 -0.8 0 -2.3 -0.9 -3.4 -2 -2.5 -2.5 -2.6 -8.7 -0.4 -23.6 1.9 -12.7 1.4 -16.6 -2.5 -19.4 -2.1 -1.5 -3.6 -4.1 -5.6 -10.1 -1.9 -5.8 -3.7 -9 -6.3 -11.5 -4.6 -4.4 -19.7 -11.7 -22.7 -11 -3.7 0.9 -11.8 6.9 -14 10.3 -1.1 1.8 -2.5 3 -3.2 2.8 -1.2 -0.4 -1.7 2.7 -2.6 15.2 -0.4 5.8 -0.6 5.6 7.2 6.8 4.9 0.8 9.1 4.2 9.1 7.4 0 1.3 -1.2 2.6 -3.5 3.6 -3.1 1.5 -3.7 1.5 -5.6 0.1 -1.2 -0.8 -2.8 -1.3 -3.5 -1 -0.8 0.3 -1.4 0.1 -1.4 -0.5 0 -1.4 2.5 -2.2 7.2 -2.2 3.5 0 3.9 -0.2 2.8 -1.5 -1.6 -2 -6 -1.9 -8.9 0.2 -1.8 1.3 -2.2 1.3 -1.9 0.2 0.3 -0.8 1.8 -1.8 3.4 -2.3 6 -1.8 6 -1.8 3.4 -2.6 -1.4 -0.4 -4 -0.5 -5.8 -0.3 -2.6 0.4 -3.2 0.9 -3.2 2.8 0 1.3 0.4 2.6 1 2.9 0.5 0.3 0.7 1.2 0.4 2 -0.3 0.8 -0.1 1.6 0.5 2 0.6 0.4 0.4 1.7 -0.5 3.6 -1.8 3.6 -1.3 6.7 2.9 16.8 2.5 6 2.8 7.5 1.7 8.2 -2.1 1.3 1.7 8.2 8.9 16 5.4 5.9 6.1 7 6.3 11.4 0.3 4.7 0.1 5 -4.8 9.4 -2.8 2.5 -11.4 7.9 -19 12 -7.6 4.1 -16.2 9.1 -19 11.2 L 11 200 8.9 195.4 z M 117.8 102.1 c 0 -0.6 0.6 -1 1.4 -1 0.8 0 1.3 -0.8 1.2 -1.8 -0.1 -1 0.4 -1.7 1 -1.6 0.6 0.1 0.2 -1.6 -0.9 -3.8 -1.5 -3.1 -2.3 -3.7 -3.3 -2.9 -1 0.8 -1.2 0.6 -0.8 -1.2 0.4 -2 0.1 -1.9 -2.5 1 -3 3.4 -4.7 7.1 -3.1 7.1 0.5 0 1.7 -1 2.7 -2.3 2.1 -2.6 5.3 -2.5 5.3 0.2 0 2.6 -2.1 4.3 -3.7 3 -1.7 -1.4 -1.9 1.2 -0.1 2.9 1.5 1.5 2.8 1.6 2.8 0.2 z m 12.2 -8.1 c 2.7 -1.7 4.8 -3.4 4.8 -3.8 0 -0.7 -6.7 -3.1 -8.8 -3.1 -0.6 0 -2.3 -1.1 -3.8 -2.5 -2.1 -1.9 -2.9 -2.2 -3.5 -1.2 -0.4 0.7 -0.8 1.6 -0.8 2 -0 1.2 5.7 3.8 8.3 3.8 2.3 0 4.2 2.1 2.9 3.4 -1.2 1.2 -2.5 0.6 -1.9 -0.9 0.6 -1.6 -1 -2 -3.8 -0.9 -2 0.8 -2 2.4 -0 2.4 1.1 0 1.4 0.6 0.9 2 -0.9 2.7 -0 2.5 5.7 -1.1 z M 116.5 80.4 c -0.6 -4.5 -2.9 -9.3 -4.4 -9.3 -0.7 0 -2.8 5.1 -3.9 9.8 -0.5 1.9 -0.1 2.2 1.9 2.2 1.7 0 2.7 -0.7 3.3 -2.2 0.7 -2 0.8 -2 1.2 1 0.2 1.8 0.9 3.2 1.5 3.2 0.7 0 0.9 -1.6 0.4 -4.7 z m 13.6 -0.8 c 1.6 -1.4 3.5 -2.5 4.2 -2.5 0.7 0 1.7 -0.9 2.4 -2 1.5 -2.3 1.2 -2.4 -2.4 -0.8 -2.8 1.3 -7.9 5.7 -6.5 5.8 0.4 0 0 0.5 -0.8 1 -0.8 0.5 -1.1 1 -0.6 1 0.5 0 2.2 -1.1 3.8 -2.5 z m -95.2 -0.8 c 0 -3.7 4.3 -10.3 6.6 -10.1 1.2 0.1 2.6 -0.9 3.6 -2.7 2.3 -4.1 6.4 -6.4 11.5 -6.6 4.2 -0.2 5.1 -0.8 8.9 -6.2 0.1 -0.2 1.9 0.9 3.9 2.4 2.6 2 3.5 3.3 3.1 4.7 -0.4 1.6 -0.1 1.8 2.2 1.3 2 -0.5 2.3 -0.4 1.2 0.4 -1.3 0.9 -1.3 1.2 0.1 2.3 16.1 12.5 16.8 13 18.4 11.4 2 -2 2 -9 0 -10.7 -1.1 -0.9 -1.2 -1.6 -0.4 -2.6 2.2 -2.7 -5.7 -12.4 -10.1 -12.4 -1.1 0 -2.5 -0.9 -3.2 -2 -0.7 -1.1 -2 -2 -3 -2 -0.9 0 -2.9 -0.5 -4.4 -1.2 -2.3 -1 -2.8 -1 -4 0.7 -1.2 1.7 -1.4 1.7 -1.4 0.2 0 -1.3 -0.9 -1.7 -4 -1.7 -2.2 0 -4 -0.4 -4 -1 0 -0.5 -2.1 0.1 -4.8 1.4 -2.6 1.3 -6.4 2.9 -8.5 3.5 -2.1 0.7 -3.5 1.6 -3.3 2 0.3 0.4 -0.2 1.4 -1 2 -0.8 0.7 -1.5 1.9 -1.5 2.6 0 0.8 -0.7 1.4 -1.5 1.4 -0.8 0 -1.5 0.9 -1.5 2 0 1.1 -1.1 4.8 -2.5 8.2 -2.5 6.2 -3.4 14.8 -1.5 14.8 0.6 0 1 -1 1 -2.2 z m 57 -4.8 c 0 -0.6 0.5 -1 1.1 -1 0.6 0 0.8 0.5 0.4 1 -0.3 0.6 -0.8 1 -1.1 1 -0.2 0 -0.4 -0.5 -0.4 -1 z m -1.7 -4.9 c -1 -2.7 -1 -2.9 0.8 -1.8 1 0.6 1.9 2 1.9 2.9 0 2.7 -1.4 2.1 -2.7 -1.2 z m -3.2 -1 c -1.4 -2.4 -2.1 -2.7 -3.1 -1.8 -1 1 -1.2 0.9 -0.8 -0.3 0.8 -2.7 3.9 -1.7 5.3 1.8 1.7 4.1 1 4.2 -1.4 0.3 z M 46 57.8 C 43.3 54.9 43.2 52.5 45.7 52.5 c 1.5 0 1.7 0.4 1 1.7 -1.4 2.5 -1.1 3.3 0.6 1.8 2 -1.6 2.7 -0.8 1.7 1.9 l -0.8 2.2 -2.2 -2.4 z m 28.8 -0 c -0.9 -0.8 -1.4 -2.5 -1.2 -4.6 0.3 -2.7 0 -3.3 -1.2 -2.8 -1.8 0.7 -2 -0.1 -0.7 -2.2 0.7 -1.1 1.2 -0.7 2.3 1.5 1.3 2.5 3.1 9.5 2.5 9.4 -0.1 -0 -0.9 -0.6 -1.7 -1.2 z m 5.6 0.5 c -0.3 -0.4 -0.1 -1.5 0.4 -2.2 0.7 -1.1 0.9 -1 0.9 0.8 0 2.3 -0.5 2.9 -1.4 1.5 z M 78.5 54.6 c -0.4 -0.9 -0.6 -2.7 -0.6 -3.9 0.1 -1.5 0.3 -1.7 0.6 -0.7 0.3 0.8 1 1.8 1.5 2.1 0.6 0.4 0.6 1.2 -0 2.4 -0.9 1.6 -1 1.6 -1.6 0 z m 4.4 -1.6 c 0 -1.1 0.5 -1.8 1 -1.4 0.6 0.3 1 1.3 1 2.1 0 0.8 -0.5 1.4 -1 1.4 -0.6 0 -1 -0.9 -1 -2.1 z m -17 -3.4 c -1.3 -1.4 -2.1 -2.8 -1.8 -3.1 1 -1 4.8 2 4.8 3.8 0 2.3 -0.2 2.2 -3 -0.7 z m 62.7 22.4 c -0.5 -1.9 -0.4 -2 1.2 -0.5 3.2 2.9 3 1.7 -0.6 -3.7 -4.1 -6 -4.9 -6.7 -8.3 -6.7 l -2.5 -0 2.5 1.2 c 2.5 1.3 4.2 3.9 6 9 1.1 3.2 2.5 3.7 1.7 0.7 z m 23.3 0.8 c -1.4 -0.6 -2.8 -1.5 -3.1 -2 -0.3 -0.5 -1.9 -0.1 -3.5 0.8 l -2.9 1.6 2.8 -0.4 c 1.5 -0.2 3 -0 3.3 0.5 0.3 0.5 1.7 0.8 3.2 0.8 l 2.7 -0.1 -2.5 -1.2 z m -14.3 -2.6 c 0.3 -1.1 1.2 -2.2 2 -2.5 1 -0.4 1.3 -1.3 0.9 -2.8 -0.3 -1.2 -0.2 -2.9 0.3 -3.7 0.7 -1.1 1.1 -0.4 1.6 2.8 0.4 2.3 1.1 4.2 1.7 4.2 1.5 0 0 -6 -1.9 -8.2 -0.9 -1 -3.9 -2.5 -6.7 -3.3 -6.3 -1.9 -7.2 -1.9 -5.2 0.1 2 2 2.1 4.8 0.1 4.1 -2.9 -1.1 -1.8 4.9 1.6 8.3 3.6 3.6 4.9 3.8 5.6 1.1 z m -5.2 -4.1 c -0.4 -0.6 0.1 -1.9 0.9 -2.8 0.9 -1 1.6 -2.3 1.6 -2.9 0 -1.5 1.3 -1.5 2.8 0 1.7 1.7 1.5 4.9 -0.2 4.2 -0.8 -0.3 -2.1 0.2 -2.9 1 -1 1 -1.8 1.2 -2.2 0.5 z m 8.4 -12.9 c 1.8 -2.4 1.9 -3 0.7 -3 -0.8 0 -2.1 0.9 -2.8 2 -0.7 1.1 -1.7 2 -2.3 2 -1.7 0 -3.1 -4.2 -2.3 -7 0.6 -2.1 0.8 -2.2 0.9 -0.5 0.1 2 0.1 2 1.6 0.1 1.9 -2.6 0.6 -3.7 -3.3 -2.9 -2.7 0.5 -3.2 1.1 -3.2 3.5 0 1.6 -0.5 2.9 -1.2 2.9 -2.3 0.1 6.7 5.7 9.3 5.9 0.3 0 1.6 -1.3 2.8 -3 z M 75.8 165.6 c 0 -0.9 0.5 -1.6 1 -1.6 0.6 0 1 0.4 1 0.9 0 0.5 -0.5 1.2 -1 1.6 -0.6 0.3 -1 -0.1 -1 -0.9 z m -8.8 -0.3 c -0.8 -0.3 0.4 -1.3 3 -2.5 2.4 -1.1 5.6 -3.1 7.1 -4.6 3 -2.9 5.1 -2.4 2.4 0.6 -0.9 1 -1.4 2.1 -1 2.5 0.4 0.4 -0.5 0.7 -2 0.7 -1.6 0 -3.2 0.8 -3.9 2 -1.2 2 -3 2.4 -5.6 1.3 z M 97.8 147 c 0 -0.6 0.5 -0.8 1 -0.4 0.6 0.3 1 0.8 1 1.1 0 0.2 -0.5 0.4 -1 0.4 -0.6 0 -1 -0.5 -1 -1.1 z m -35.2 -5 c 1.2 -0.5 3.3 -1.3 4.5 -1.8 1.7 -0.7 1.2 -0.8 -1.9 -0.4 -2.3 0.3 -6.4 0.2 -9 -0.2 -6.8 -1 -3.4 -2.1 9.2 -2.8 l 10 -0.6 -3.7 3.4 c -2.9 2.7 -4.6 3.4 -7.5 3.4 -3.3 -0.1 -3.5 -0.2 -1.5 -1 z m -6.3 -11.4 c -3.1 -1 -3 -1 4.2 -3.5 7.7 -2.5 9.2 -2.4 7.5 0.6 -0.7 1.2 -1.1 1.4 -1.1 0.4 -0 -1.1 -0.4 -1.1 -1.9 0.3 -1 0.9 -2.2 1.3 -2.6 0.9 -0.4 -0.4 -1.3 -0.1 -1.9 0.8 -0.9 1.2 -1.8 1.3 -4.3 0.5 z m 8.1 -23.7 c 0.4 -2 0.3 -2.9 -0.3 -2.5 -0.5 0.3 -1.3 -0.4 -1.6 -1.6 -1.3 -4.8 -0.7 -5.8 4.6 -8.3 6.7 -3.1 15.2 -3.3 20.7 -0.5 4.4 2.2 5.1 3.5 3.9 6.9 -0.5 1.3 -0.6 3.3 -0.3 4.3 0.6 1.7 0.4 1.8 -1.6 0.8 -2.6 -1.4 -5 -0.7 -5 1.5 0 1.2 -0.5 1.4 -2.2 0.8 -1.2 -0.4 -3.1 -0.8 -4.2 -0.8 -1.1 -0 -2.7 -0.9 -3.6 -2 -1.4 -1.7 -1.9 -1.8 -3.2 -0.7 -1.4 1.1 -1.6 1.1 -1.6 -0.2 0 -2.1 6.3 -4.1 10.9 -3.4 3.4 0.5 3.5 0.5 1.6 -1 -3.1 -2.4 -10.4 -1.2 -13.2 2.1 -1.3 1.5 -2.3 3.8 -2.3 5.1 0 1.6 -0.6 2.4 -1.6 2.4 -1.2 0 -1.4 -0.7 -0.9 -3.1 z m 18 -0.9 c 0.3 -0.6 0.2 -1 -0.4 -1 -0.6 0 -1.3 0.5 -1.6 1 -0.3 0.6 -0.2 1 0.4 1 0.6 0 1.3 -0.5 1.6 -1 z m 7 -6.2 c -1 -3.3 -4.3 -5.8 -7.7 -5.8 -4.8 0 -15.8 3.3 -15.8 4.7 0 1 0.6 1 3 -0.2 4.4 -2.3 11 -1.9 16.1 0.9 2.4 1.3 4.6 2.5 4.7 2.5 0.2 0 0 -0.9 -0.3 -2.2 z" inkscape:connector-curvature="0"/></svg>